<svg id="svg" version="1.1" xmlns="http://www.w3.org/2000/svg" xmlns:xlink="http://www.w3.org/1999/xlink" width="400" height="153.51910370583164" viewBox="0, 0, 400,153.51910370583164"><g id="svgg"><path id="path0" d="M78.833 33.914 C 77.596 34.024,76.283 34.197,75.917 34.298 C 75.550 34.400,74.313 34.681,73.167 34.922 C 46.404 40.561,31.893 70.867,44.156 95.510 C 52.624 112.527,71.952 122.345,89.912 118.753 C 118.632 113.010,133.537 83.185,120.595 57.357 C 113.711 43.619,98.680 34.013,84.052 34.001 C 83.100 34.001,82.308 33.927,82.250 33.833 C 82.130 33.639,81.850 33.646,78.833 33.914 M85.927 48.408 C 110.780 51.702,119.766 82.688,100.500 98.661 C 89.309 107.939,71.541 106.859,61.915 96.316 C 45.645 78.496,55.882 51.176,79.917 48.277 C 81.198 48.122,84.278 48.190,85.927 48.408 " stroke="none" fill="#6bcbf3" fill-rule="evenodd"></path><path id="path1" d="M82.167 29.000 L 82.167 33.833 83.458 33.835 C 105.600 33.862,125.246 53.549,125.330 75.792 L 125.333 76.667 130.167 76.667 C 134.660 76.667,135.000 76.646,134.998 76.375 C 134.991 75.635,134.473 69.641,134.339 68.750 C 134.093 67.122,133.867 65.905,133.683 65.223 C 133.589 64.871,133.397 64.096,133.257 63.500 C 132.766 61.408,131.620 57.914,131.167 57.127 C 131.075 56.968,131.000 56.755,131.000 56.653 C 131.000 56.307,128.359 51.091,127.294 49.333 C 124.616 44.914,120.543 40.106,116.917 37.083 C 116.367 36.625,115.842 36.166,115.750 36.063 C 115.658 35.961,114.983 35.436,114.250 34.897 C 113.517 34.358,112.816 33.821,112.693 33.704 C 112.569 33.588,112.232 33.371,111.943 33.223 C 111.653 33.075,111.379 32.907,111.333 32.850 C 111.178 32.657,109.841 31.833,109.684 31.833 C 109.598 31.833,109.503 31.777,109.472 31.708 C 109.342 31.416,104.602 28.984,102.583 28.173 C 101.850 27.879,101.100 27.574,100.917 27.497 C 99.133 26.740,94.178 25.410,91.667 25.012 C 91.071 24.918,90.110 24.760,89.531 24.660 C 88.473 24.478,84.431 24.177,82.958 24.170 L 82.167 24.167 82.167 29.000 M160.667 49.083 L 160.667 60.333 162.833 60.333 L 165.000 60.333 165.000 56.190 L 165.000 52.047 167.363 51.927 C 171.163 51.734,172.885 50.830,174.177 48.350 C 176.212 44.447,174.557 40.008,170.451 38.354 C 169.747 38.071,166.587 37.836,163.458 37.835 L 160.667 37.833 160.667 49.083 M292.000 39.828 L 292.000 41.833 294.089 41.833 L 296.177 41.833 296.130 39.875 L 296.083 37.917 294.042 37.870 L 292.000 37.823 292.000 39.828 M169.167 42.543 C 170.418 43.165,170.968 44.756,170.351 45.965 C 169.685 47.271,168.809 47.667,166.589 47.667 L 165.000 47.667 165.000 44.902 L 165.000 42.137 166.792 42.195 C 168.065 42.236,168.752 42.337,169.167 42.543 M183.750 42.932 C 183.567 42.975,183.079 43.096,182.667 43.200 C 175.589 44.983,173.972 55.042,180.030 59.609 C 182.496 61.468,187.122 61.212,189.476 59.085 L 190.167 58.461 190.167 59.397 L 190.167 60.333 192.167 60.333 L 194.167 60.333 194.167 51.917 L 194.167 43.500 192.167 43.500 L 190.167 43.500 190.167 44.431 L 190.167 45.362 189.432 44.715 C 187.949 43.410,185.277 42.571,183.750 42.932 M203.643 43.152 C 202.571 43.441,201.586 43.938,201.079 44.445 C 200.863 44.661,200.833 44.620,200.833 44.095 L 200.833 43.500 198.833 43.500 L 196.833 43.500 196.833 51.917 L 196.833 60.333 198.917 60.333 L 201.000 60.333 201.000 56.095 C 201.000 51.820,201.176 49.618,201.581 48.840 C 202.564 46.951,205.024 46.524,206.489 47.989 C 207.568 49.068,207.667 49.683,207.667 55.352 L 207.667 60.333 209.764 60.333 L 211.861 60.333 211.789 54.125 C 211.728 48.810,211.677 47.812,211.436 47.187 C 210.219 44.038,206.841 42.289,203.643 43.152 M220.917 43.098 C 219.105 43.526,218.172 44.043,216.840 45.355 C 215.615 46.562,214.838 47.916,214.418 49.577 C 213.878 51.710,214.186 54.335,215.230 56.500 C 217.503 61.213,223.803 62.361,227.750 58.781 C 228.079 58.482,228.084 58.490,228.133 59.406 L 228.183 60.333 230.092 60.333 L 232.000 60.333 232.000 51.917 L 232.000 43.500 230.083 43.500 L 228.167 43.500 228.167 44.535 L 228.167 45.571 227.375 44.803 C 225.692 43.169,223.292 42.536,220.917 43.098 M242.000 42.948 C 241.098 43.099,239.992 43.542,239.345 44.010 L 238.667 44.502 238.667 44.001 L 238.667 43.500 236.667 43.500 L 234.667 43.500 234.667 51.917 L 234.667 60.333 236.833 60.333 L 239.000 60.333 239.000 55.252 C 239.000 51.755,239.064 49.932,239.205 49.404 C 240.084 46.120,244.465 46.399,245.144 49.782 C 245.259 50.352,245.333 52.612,245.333 55.528 L 245.333 60.333 247.408 60.333 L 249.483 60.333 249.533 54.958 C 249.588 49.046,249.609 48.918,250.684 47.867 C 252.057 46.525,254.557 46.989,255.349 48.734 C 255.631 49.355,255.660 49.913,255.663 54.875 L 255.667 60.333 257.849 60.333 L 260.031 60.333 259.966 54.208 L 259.901 48.083 259.428 46.948 C 257.666 42.710,251.477 41.470,248.349 44.728 L 247.781 45.319 247.182 44.684 C 245.984 43.412,243.732 42.658,242.000 42.948 M270.167 42.951 C 259.760 44.750,259.659 59.089,270.042 60.822 C 273.380 61.379,277.174 59.510,278.875 56.469 C 279.529 55.301,279.581 55.333,277.037 55.333 C 274.789 55.333,274.315 55.431,273.833 55.995 C 272.497 57.560,268.392 56.647,267.198 54.520 L 266.812 53.833 273.219 53.833 L 279.625 53.833 279.729 53.313 C 280.063 51.645,279.741 49.428,278.922 47.753 C 278.425 46.737,276.907 44.833,276.594 44.833 C 276.535 44.833,276.320 44.678,276.118 44.488 C 275.024 43.460,271.895 42.652,270.167 42.951 M288.750 42.992 C 287.846 43.231,287.379 43.470,286.769 44.006 L 286.167 44.535 286.167 44.017 L 286.167 43.500 284.250 43.500 L 282.333 43.500 282.333 51.917 L 282.333 60.333 284.417 60.333 L 286.500 60.333 286.500 55.108 C 286.500 49.618,286.547 49.198,287.272 48.221 C 287.662 47.695,289.127 47.000,289.845 47.000 C 290.161 47.000,290.175 46.902,290.130 44.958 L 290.083 42.917 289.667 42.889 C 289.438 42.873,289.025 42.920,288.750 42.992 M306.583 42.911 C 306.492 42.939,305.967 43.059,305.417 43.176 C 296.560 45.069,295.960 57.509,304.583 60.472 C 308.457 61.802,313.437 59.856,315.202 56.322 C 316.018 54.687,316.094 54.757,313.431 54.703 L 311.112 54.657 310.639 55.231 C 307.919 58.530,302.486 56.105,302.693 51.684 C 302.893 47.409,308.307 45.352,310.660 48.657 L 311.023 49.167 313.416 49.167 L 315.810 49.167 315.660 48.645 C 314.725 45.383,309.424 42.035,306.583 42.911 M325.000 42.938 C 321.667 43.565,319.040 45.840,317.997 49.000 C 317.676 49.973,317.662 53.800,317.976 54.750 C 318.199 55.424,319.007 57.180,319.166 57.333 C 319.213 57.379,319.462 57.699,319.720 58.044 C 322.217 61.394,327.893 61.850,330.958 58.948 L 331.500 58.435 331.500 59.384 L 331.500 60.333 333.500 60.333 L 335.500 60.333 335.500 51.917 L 335.500 43.500 333.500 43.500 L 331.500 43.500 331.500 44.431 L 331.500 45.362 330.765 44.715 C 329.254 43.384,326.743 42.611,325.000 42.938 M345.167 43.090 C 343.990 43.413,343.308 43.736,342.675 44.269 L 342.167 44.696 342.167 44.098 L 342.167 43.500 340.167 43.500 L 338.167 43.500 338.167 51.917 L 338.167 60.333 340.320 60.333 L 342.472 60.333 342.536 54.875 C 342.608 48.803,342.604 48.821,343.781 47.852 C 345.555 46.389,347.983 47.152,348.728 49.405 C 348.955 50.091,349.000 51.055,349.000 55.280 L 349.000 60.333 351.185 60.333 L 353.369 60.333 353.280 54.708 C 353.186 48.733,353.087 47.773,352.429 46.426 C 351.192 43.899,347.836 42.357,345.167 43.090 M363.083 42.941 C 358.134 43.972,355.667 46.958,355.667 51.917 C 355.667 59.416,362.880 63.537,368.510 59.256 L 369.500 58.503 369.500 59.418 L 369.500 60.333 371.417 60.333 L 373.333 60.333 373.333 51.917 L 373.333 43.500 371.417 43.500 L 369.500 43.500 369.500 44.506 L 369.500 45.513 368.812 44.832 C 367.450 43.483,364.754 42.594,363.083 42.941 M292.000 51.917 L 292.000 60.333 294.083 60.333 L 296.167 60.333 296.167 51.917 L 296.167 43.500 294.083 43.500 L 292.000 43.500 292.000 51.917 M187.076 47.423 C 189.715 48.319,190.817 51.508,189.454 54.302 C 188.391 56.481,185.342 57.418,183.167 56.234 C 177.822 53.325,181.309 45.465,187.076 47.423 M224.250 47.178 C 229.834 48.656,228.900 56.727,223.149 56.702 C 218.878 56.683,216.831 51.663,219.832 48.566 C 221.083 47.275,222.698 46.768,224.250 47.178 M272.196 47.198 C 273.538 47.496,275.500 49.076,275.500 49.858 C 275.500 49.936,273.550 50.000,271.167 50.000 C 268.783 50.000,266.833 49.955,266.833 49.901 C 266.833 49.091,268.652 47.638,270.167 47.238 C 271.173 46.972,271.180 46.972,272.196 47.198 M327.750 47.178 C 330.949 48.025,332.274 51.119,330.816 54.333 C 329.311 57.650,323.903 57.460,322.389 54.037 C 320.761 50.356,324.017 46.190,327.750 47.178 M365.802 47.240 C 369.189 48.141,370.434 52.051,368.273 55.000 C 366.652 57.214,362.984 57.307,361.032 55.185 C 357.825 51.697,361.231 46.023,365.802 47.240 M78.250 48.585 C 58.595 51.728,48.038 73.343,57.762 90.534 C 67.945 108.537,93.590 109.949,105.543 93.165 C 119.984 72.886,102.712 44.673,78.250 48.585 M85.500 62.065 C 98.130 64.771,101.620 81.018,91.215 88.670 C 86.603 92.061,80.206 92.439,75.250 89.613 C 73.692 88.725,72.179 87.513,71.304 86.452 C 70.910 85.974,70.549 85.546,70.502 85.500 C 70.349 85.352,69.167 83.508,69.167 83.417 C 69.167 83.369,69.020 83.012,68.842 82.623 C 67.236 79.130,67.184 74.684,68.706 71.000 C 69.136 69.958,69.280 69.683,69.933 68.649 C 70.944 67.050,71.882 66.026,73.417 64.849 C 73.783 64.567,74.170 64.265,74.276 64.176 C 74.383 64.088,75.020 63.745,75.693 63.414 C 76.366 63.083,77.029 62.754,77.167 62.682 C 77.304 62.610,77.829 62.455,78.333 62.337 C 78.837 62.220,79.438 62.064,79.667 61.992 C 80.378 61.766,84.338 61.816,85.500 62.065 M30.000 77.625 C 29.999 79.433,30.487 84.220,30.862 86.083 C 31.706 90.279,32.473 92.897,33.967 96.680 C 34.119 97.065,35.140 99.264,35.780 100.583 C 36.252 101.555,37.849 104.323,38.372 105.074 C 38.440 105.171,38.828 105.749,39.235 106.359 C 39.643 106.969,40.088 107.607,40.226 107.776 C 40.364 107.945,40.945 108.683,41.518 109.417 C 43.498 111.949,46.701 115.198,49.083 117.089 C 49.542 117.452,49.954 117.791,50.000 117.842 C 50.474 118.364,54.628 121.181,56.414 122.192 C 57.691 122.915,61.958 125.000,62.159 125.000 C 62.258 125.000,62.468 125.069,62.627 125.152 C 63.423 125.571,65.898 126.447,67.833 126.995 C 68.246 127.112,68.921 127.307,69.333 127.428 C 71.840 128.164,77.437 128.956,80.750 129.044 L 82.250 129.083 82.294 124.314 L 82.338 119.544 81.711 119.441 C 81.366 119.384,80.591 119.336,79.989 119.335 C 78.890 119.333,76.031 118.997,74.343 118.672 C 55.031 114.945,40.724 98.415,39.725 78.675 L 39.615 76.500 34.808 76.500 L 30.000 76.500 30.000 77.625 " stroke="none" fill="#2c1c44" fill-rule="evenodd"></path><path id="path2" d="M71.333 18.357 C 68.307 18.664,66.663 18.939,63.500 19.667 C 58.360 20.850,49.924 24.604,46.750 27.120 C 46.658 27.193,46.372 27.388,46.114 27.554 C 45.856 27.720,45.518 27.957,45.364 28.081 C 45.210 28.206,44.296 28.927,43.333 29.685 C 40.961 31.553,36.539 36.008,35.343 37.736 C 35.211 37.927,35.057 38.121,35.001 38.167 C 34.945 38.212,34.678 38.550,34.408 38.917 C 34.138 39.283,33.835 39.670,33.736 39.776 C 33.636 39.883,33.301 40.370,32.991 40.860 C 32.681 41.349,32.381 41.787,32.324 41.833 C 32.268 41.879,31.928 42.430,31.569 43.058 C 31.210 43.686,30.790 44.412,30.635 44.671 C 29.360 46.806,27.547 50.956,26.565 53.986 C 26.061 55.541,25.875 56.194,25.330 58.333 C 25.126 59.134,24.895 60.362,24.687 61.750 C 24.591 62.392,24.428 63.479,24.324 64.167 C 24.220 64.854,24.094 66.599,24.044 68.043 L 23.953 70.670 32.006 70.627 L 40.060 70.583 40.508 68.417 C 44.182 50.679,57.826 37.441,75.542 34.425 L 76.167 34.318 76.167 26.242 L 76.167 18.167 74.458 18.190 C 73.519 18.203,72.112 18.278,71.333 18.357 M83.042 33.956 C 83.477 33.990,84.190 33.990,84.625 33.956 C 85.060 33.922,84.704 33.893,83.833 33.893 C 82.962 33.893,82.606 33.922,83.042 33.956 M111.500 45.213 C 111.500 45.238,112.081 45.819,112.792 46.504 L 114.083 47.750 112.838 46.458 C 111.680 45.259,111.500 45.091,111.500 45.213 M81.375 48.290 C 81.994 48.322,83.006 48.322,83.625 48.290 C 84.244 48.258,83.737 48.232,82.500 48.232 C 81.262 48.232,80.756 48.258,81.375 48.290 M63.406 55.542 L 62.917 56.083 63.458 55.594 C 63.963 55.138,64.077 55.000,63.948 55.000 C 63.919 55.000,63.675 55.244,63.406 55.542 M101.333 55.379 C 101.333 55.404,101.915 55.986,102.625 56.671 L 103.917 57.917 102.671 56.625 C 101.514 55.425,101.333 55.257,101.333 55.379 M61.324 57.625 L 60.750 58.250 61.375 57.676 C 61.719 57.360,62.000 57.078,62.000 57.051 C 62.000 56.923,61.859 57.043,61.324 57.625 M80.915 70.242 C 76.664 71.284,74.600 75.959,76.688 79.814 C 79.175 84.406,86.117 84.290,88.371 79.618 C 90.844 74.493,86.395 68.898,80.915 70.242 M219.750 73.585 C 217.431 73.904,215.223 74.456,214.226 74.966 C 214.056 75.054,213.283 75.442,212.509 75.830 C 207.626 78.276,203.742 83.105,202.318 88.500 C 201.166 92.866,201.447 98.459,203.015 102.382 C 203.546 103.708,203.727 104.077,204.631 105.667 C 206.186 108.400,209.644 111.604,212.583 113.034 C 213.133 113.301,213.714 113.591,213.874 113.678 C 214.708 114.129,216.902 114.717,219.403 115.159 C 223.097 115.812,228.666 115.029,232.167 113.366 C 234.490 112.262,239.005 108.753,238.999 108.055 C 238.998 107.979,237.721 106.616,236.161 105.026 L 233.323 102.135 232.370 102.939 C 231.846 103.381,231.379 103.787,231.333 103.841 C 229.521 105.974,223.471 107.445,220.000 106.598 C 210.174 104.199,207.800 89.783,216.250 83.823 C 220.866 80.568,227.313 81.328,232.121 85.694 C 233.015 86.505,232.975 86.512,233.936 85.375 C 234.382 84.848,234.822 84.334,234.915 84.234 C 235.007 84.133,235.458 83.611,235.917 83.073 C 236.375 82.535,237.181 81.616,237.708 81.031 C 238.235 80.445,238.667 79.869,238.667 79.750 C 238.667 79.016,234.740 76.232,232.000 75.024 C 228.847 73.634,223.748 73.035,219.750 73.585 M173.905 74.458 C 173.759 74.802,173.339 75.833,172.972 76.750 C 172.604 77.667,172.247 78.492,172.178 78.583 C 172.109 78.675,171.847 79.275,171.595 79.917 C 171.137 81.087,171.046 81.303,170.292 83.000 C 170.068 83.504,169.711 84.367,169.499 84.917 C 169.286 85.467,169.056 85.992,168.988 86.083 C 168.919 86.175,168.475 87.225,168.000 88.417 C 167.525 89.608,167.080 90.658,167.011 90.750 C 166.942 90.842,166.756 91.254,166.596 91.667 C 166.235 92.600,165.853 93.493,165.651 93.875 C 165.567 94.035,165.202 94.897,164.841 95.791 C 164.287 97.161,163.701 98.550,162.641 101.000 C 162.542 101.229,162.394 101.548,162.313 101.708 C 162.231 101.868,161.860 102.762,161.489 103.694 C 161.118 104.626,160.605 105.845,160.350 106.403 C 160.095 106.960,159.712 107.867,159.499 108.417 C 159.286 108.967,159.056 109.492,158.987 109.583 C 158.919 109.675,158.625 110.350,158.334 111.083 C 157.675 112.748,157.368 113.461,157.068 114.026 C 156.939 114.269,156.833 114.513,156.833 114.567 C 156.833 114.622,158.935 114.667,161.504 114.667 L 166.174 114.667 166.361 114.208 C 166.463 113.956,166.687 113.432,166.857 113.044 C 167.027 112.655,167.362 111.830,167.601 111.211 C 167.841 110.591,168.166 109.783,168.324 109.417 C 168.482 109.050,168.820 108.225,169.075 107.583 C 169.330 106.942,169.618 106.248,169.714 106.042 L 169.890 105.667 178.320 105.671 L 186.750 105.676 187.227 106.796 C 187.490 107.412,187.780 108.104,187.872 108.333 C 187.964 108.563,188.105 108.880,188.186 109.039 C 188.267 109.199,188.333 109.408,188.333 109.504 C 188.333 109.601,188.604 110.295,188.936 111.048 C 189.653 112.677,189.723 112.850,190.093 113.875 L 190.379 114.667 195.106 114.667 C 199.132 114.667,199.833 114.631,199.833 114.424 C 199.833 114.291,199.526 113.485,199.150 112.632 C 198.774 111.780,198.257 110.558,198.001 109.917 C 197.745 109.275,197.345 108.336,197.114 107.830 C 196.882 107.325,196.541 106.528,196.357 106.060 C 196.172 105.591,195.858 104.843,195.658 104.396 C 195.069 103.079,194.878 102.630,194.531 101.750 C 194.350 101.292,194.013 100.503,193.781 99.997 C 193.549 99.491,193.208 98.694,193.023 98.226 C 192.839 97.758,192.526 97.009,192.327 96.562 C 192.129 96.116,191.909 95.600,191.839 95.417 C 191.685 95.014,191.508 94.607,190.828 93.083 C 190.541 92.442,190.013 91.185,189.655 90.291 C 189.296 89.397,188.933 88.535,188.848 88.375 C 188.622 87.947,188.000 86.517,188.000 86.423 C 188.000 86.379,187.808 85.910,187.574 85.380 C 187.339 84.850,187.084 84.267,187.007 84.083 C 186.930 83.900,186.709 83.395,186.517 82.960 C 186.324 82.526,186.167 82.127,186.167 82.075 C 186.167 82.022,185.989 81.590,185.773 81.115 C 184.873 79.140,184.667 78.666,184.667 78.575 C 184.667 78.522,184.473 78.053,184.237 77.531 C 184.000 77.010,183.745 76.433,183.670 76.250 C 183.595 76.067,183.419 75.653,183.278 75.331 C 183.137 75.009,182.944 74.540,182.848 74.289 L 182.675 73.833 178.423 73.833 L 174.171 73.833 173.905 74.458 M246.000 94.333 L 246.000 114.667 250.417 114.667 L 254.833 114.667 254.834 101.708 L 254.834 88.750 255.497 89.750 C 255.861 90.300,256.232 90.862,256.322 91.000 C 256.412 91.138,256.901 91.880,257.409 92.651 C 257.918 93.421,258.333 94.080,258.333 94.116 C 258.333 94.152,258.412 94.271,258.509 94.382 C 258.606 94.493,259.918 96.458,261.425 98.750 C 265.659 105.189,265.875 105.500,266.113 105.500 C 266.372 105.500,266.380 105.489,269.767 100.333 C 271.182 98.179,272.414 96.304,272.505 96.167 C 272.596 96.029,273.757 94.267,275.085 92.251 L 277.500 88.584 277.500 101.626 L 277.500 114.667 282.000 114.667 L 286.500 114.667 286.500 94.331 L 286.500 73.995 281.635 74.039 L 276.771 74.083 275.545 76.000 C 274.870 77.054,274.003 78.430,273.618 79.058 C 273.232 79.686,272.579 80.750,272.167 81.422 C 271.754 82.095,271.060 83.222,270.625 83.927 C 270.190 84.632,269.833 85.268,269.833 85.341 C 269.833 85.413,269.777 85.497,269.708 85.528 C 269.529 85.608,268.667 86.961,268.667 87.163 C 268.667 87.257,268.592 87.333,268.500 87.333 C 268.408 87.333,268.333 87.411,268.333 87.507 C 268.333 87.602,268.193 87.883,268.022 88.132 C 267.850 88.380,267.369 89.131,266.952 89.801 L 266.193 91.018 265.603 90.011 C 265.279 89.458,264.437 88.085,263.733 86.961 C 263.029 85.836,261.967 84.129,261.374 83.167 C 260.780 82.204,260.078 81.096,259.814 80.703 C 259.549 80.311,259.333 79.962,259.333 79.926 C 259.333 79.891,258.847 79.087,258.253 78.140 C 257.659 77.192,256.833 75.873,256.416 75.208 L 255.658 74.000 250.829 74.000 L 246.000 74.000 246.000 94.333 M314.545 74.542 C 314.590 74.840,315.163 76.621,315.818 78.500 C 316.473 80.379,317.718 84.017,318.584 86.583 C 320.469 92.169,322.857 99.211,325.252 106.250 C 326.219 109.092,327.277 112.223,327.603 113.208 L 328.196 115.000 332.159 115.000 L 336.122 115.000 336.564 113.708 C 336.807 112.998,337.377 111.329,337.832 110.000 C 338.286 108.671,339.037 106.496,339.500 105.167 C 339.963 103.837,340.712 101.662,341.166 100.333 C 341.619 99.004,342.446 96.604,343.004 95.000 C 343.562 93.396,344.249 91.385,344.532 90.531 C 345.130 88.720,345.126 88.719,345.896 91.000 C 346.221 91.962,347.022 94.287,347.676 96.167 C 348.330 98.046,349.077 100.221,349.336 101.000 C 349.595 101.779,350.032 103.054,350.309 103.833 C 350.585 104.612,351.157 106.263,351.579 107.500 C 352.002 108.737,352.409 109.900,352.484 110.083 C 352.560 110.267,352.828 111.054,353.081 111.833 C 353.334 112.612,353.607 113.321,353.687 113.408 C 353.768 113.495,353.833 113.698,353.833 113.859 C 353.833 114.020,353.920 114.342,354.027 114.575 L 354.220 115.000 358.158 115.000 L 362.097 115.000 362.897 112.542 C 363.336 111.190,363.798 109.821,363.923 109.500 C 364.152 108.912,364.680 107.366,367.255 99.750 C 368.029 97.458,369.528 93.033,370.584 89.917 C 374.265 79.054,375.833 74.351,375.833 74.176 C 375.833 74.057,374.320 74.000,371.120 74.000 L 366.406 74.000 366.177 74.792 C 366.052 75.227,365.782 76.108,365.579 76.750 C 365.041 78.449,364.524 80.154,364.314 80.917 C 364.213 81.283,364.034 81.846,363.915 82.167 C 363.796 82.487,363.535 83.313,363.335 84.000 C 362.893 85.516,362.825 85.741,362.068 88.167 C 361.740 89.221,361.392 90.346,361.295 90.667 C 361.199 90.987,361.063 91.438,360.992 91.667 C 360.117 94.524,359.637 96.100,359.369 97.000 C 358.562 99.706,358.275 100.593,358.168 100.716 C 358.104 100.788,356.980 97.601,355.670 93.632 C 352.762 84.821,352.233 83.225,352.006 82.583 C 351.909 82.308,351.237 80.283,350.513 78.083 L 349.196 74.083 345.249 74.083 L 341.303 74.083 340.902 75.333 C 340.682 76.021,340.423 76.808,340.325 77.083 C 340.228 77.358,339.618 79.196,338.970 81.167 C 338.323 83.137,337.059 86.962,336.162 89.667 C 335.265 92.371,334.341 95.183,334.108 95.917 C 333.876 96.650,333.466 97.888,333.197 98.667 C 332.928 99.446,332.654 100.308,332.588 100.583 C 332.450 101.157,332.265 100.742,331.506 98.167 C 330.917 96.168,330.862 95.986,330.419 94.583 C 329.923 93.007,329.854 92.782,329.172 90.500 C 328.884 89.537,328.547 88.450,328.422 88.083 C 328.296 87.717,328.029 86.854,327.827 86.167 C 327.624 85.479,327.291 84.392,327.086 83.750 C 326.881 83.108,326.548 82.021,326.345 81.333 C 326.014 80.207,325.005 76.893,324.670 75.833 C 324.598 75.604,324.443 75.098,324.326 74.708 L 324.113 74.000 319.288 74.000 L 314.464 74.000 314.545 74.542 M125.223 75.500 C 125.223 76.188,125.252 76.469,125.288 76.125 C 125.324 75.781,125.324 75.219,125.288 74.875 C 125.252 74.531,125.223 74.813,125.223 75.500 M54.060 76.667 C 54.060 77.537,54.088 77.894,54.123 77.458 C 54.157 77.023,54.157 76.310,54.123 75.875 C 54.088 75.440,54.060 75.796,54.060 76.667 M110.883 76.667 C 110.883 77.171,110.915 77.377,110.953 77.125 C 110.991 76.873,110.991 76.460,110.953 76.208 C 110.915 75.956,110.883 76.162,110.883 76.667 M39.725 78.000 C 39.725 78.779,39.754 79.098,39.789 78.708 C 39.824 78.319,39.824 77.681,39.789 77.292 C 39.754 76.902,39.725 77.221,39.725 78.000 M54.205 79.833 C 54.205 80.154,54.240 80.285,54.282 80.125 C 54.323 79.965,54.323 79.702,54.282 79.542 C 54.240 79.381,54.205 79.512,54.205 79.833 M124.501 84.625 C 121.184 101.856,107.878 115.193,90.591 118.615 L 88.333 119.062 88.333 127.031 L 88.333 135.000 90.458 135.000 C 98.291 135.001,107.961 132.122,115.381 127.581 C 120.730 124.308,127.005 118.631,129.841 114.500 C 130.061 114.179,130.381 113.767,130.551 113.583 C 130.722 113.400,131.058 112.912,131.298 112.500 C 131.538 112.087,131.778 111.712,131.831 111.667 C 132.505 111.086,135.552 105.260,136.668 102.417 C 136.740 102.233,136.967 101.671,137.173 101.167 C 137.804 99.619,138.764 96.243,139.235 93.917 C 139.873 90.767,140.136 88.597,140.268 85.375 L 140.380 82.667 132.629 82.667 L 124.878 82.667 124.501 84.625 M178.600 85.625 C 178.658 85.877,178.796 86.233,178.906 86.417 C 179.016 86.600,179.277 87.200,179.486 87.750 C 179.695 88.300,179.935 88.900,180.019 89.083 C 180.102 89.267,180.908 91.217,181.809 93.417 L 183.447 97.417 178.365 97.461 C 175.570 97.485,173.256 97.478,173.223 97.445 C 173.174 97.397,174.517 94.013,175.151 92.583 C 175.233 92.400,175.425 91.950,175.578 91.583 C 176.143 90.229,176.209 90.077,176.353 89.794 C 176.434 89.635,176.500 89.428,176.500 89.334 C 176.500 89.181,176.654 88.806,177.426 87.083 C 177.549 86.808,177.781 86.265,177.940 85.875 C 178.278 85.052,178.452 84.986,178.600 85.625 M294.000 96.667 L 294.000 101.000 303.000 101.000 L 312.000 101.000 312.000 96.667 L 312.000 92.333 303.000 92.333 L 294.000 92.333 294.000 96.667 M62.417 96.833 C 62.961 97.383,63.444 97.833,63.490 97.833 C 63.535 97.833,63.128 97.383,62.583 96.833 C 62.039 96.283,61.556 95.833,61.510 95.833 C 61.465 95.833,61.872 96.283,62.417 96.833 M102.573 96.708 L 102.083 97.250 102.625 96.760 C 102.923 96.491,103.167 96.248,103.167 96.219 C 103.167 96.090,103.029 96.203,102.573 96.708 M79.460 104.951 C 79.668 104.991,79.968 104.990,80.127 104.948 C 80.286 104.906,80.117 104.874,79.750 104.875 C 79.383 104.877,79.253 104.911,79.460 104.951 M84.875 104.948 C 85.035 104.990,85.298 104.990,85.458 104.948 C 85.619 104.906,85.487 104.872,85.167 104.872 C 84.846 104.872,84.715 104.906,84.875 104.948 M52.083 106.833 C 52.628 107.383,53.110 107.833,53.156 107.833 C 53.202 107.833,52.794 107.383,52.250 106.833 C 51.706 106.283,51.223 105.833,51.177 105.833 C 51.131 105.833,51.539 106.283,52.083 106.833 M78.627 119.285 C 78.834 119.324,79.134 119.323,79.294 119.281 C 79.453 119.239,79.283 119.207,78.917 119.209 C 78.550 119.211,78.420 119.245,78.627 119.285 " stroke="none" fill="#346cb3" fill-rule="evenodd"></path></g></svg>